<svg xmlns="http://www.w3.org/2000/svg" viewBox="0 0 700 700" fill="none" stroke="#C9B8FF" stroke-width="1.5">
<g opacity="1">
  <circle cx="200.00" cy="350.00" r="50.00"/>
  <circle cx="225.00" cy="393.30" r="50.00"/>
  <circle cx="250.00" cy="436.60" r="50.00"/>
  <circle cx="275.00" cy="479.90" r="50.00"/>
  <circle cx="225.00" cy="306.70" r="50.00"/>
  <circle cx="250.00" cy="350.00" r="50.00"/>
  <circle cx="275.00" cy="393.30" r="50.00"/>
  <circle cx="300.00" cy="436.60" r="50.00"/>
  <circle cx="325.00" cy="479.90" r="50.00"/>
  <circle cx="250.00" cy="263.40" r="50.00"/>
  <circle cx="275.00" cy="306.70" r="50.00"/>
  <circle cx="300.00" cy="350.00" r="50.00"/>
  <circle cx="325.00" cy="393.30" r="50.00"/>
  <circle cx="350.00" cy="436.60" r="50.00"/>
  <circle cx="375.00" cy="479.90" r="50.00"/>
  <circle cx="275.00" cy="220.10" r="50.00"/>
  <circle cx="300.00" cy="263.40" r="50.00"/>
  <circle cx="325.00" cy="306.70" r="50.00"/>
  <circle cx="350.00" cy="350.00" r="50.00"/>
  <circle cx="375.00" cy="393.30" r="50.00"/>
  <circle cx="400.00" cy="436.60" r="50.00"/>
  <circle cx="425.00" cy="479.90" r="50.00"/>
  <circle cx="325.00" cy="220.10" r="50.00"/>
  <circle cx="350.00" cy="263.40" r="50.00"/>
  <circle cx="375.00" cy="306.70" r="50.00"/>
  <circle cx="400.00" cy="350.00" r="50.00"/>
  <circle cx="425.00" cy="393.30" r="50.00"/>
  <circle cx="450.00" cy="436.60" r="50.00"/>
  <circle cx="375.00" cy="220.10" r="50.00"/>
  <circle cx="400.00" cy="263.40" r="50.00"/>
  <circle cx="425.00" cy="306.70" r="50.00"/>
  <circle cx="450.00" cy="350.00" r="50.00"/>
  <circle cx="475.00" cy="393.30" r="50.00"/>
  <circle cx="425.00" cy="220.10" r="50.00"/>
  <circle cx="450.00" cy="263.40" r="50.00"/>
  <circle cx="475.00" cy="306.70" r="50.00"/>
  <circle cx="500.00" cy="350.00" r="50.00"/>
  <circle cx="350.0" cy="350.0" r="150.00"/>
  <circle cx="350.0" cy="350.0" r="162.00"/>
</g>
</svg>